<?xml version="1.0" encoding="utf-8"?>
<!-- Generator: Adobe Illustrator 28.0.0, SVG Export Plug-In . SVG Version: 6.00 Build 0)  -->
<svg version="1.1" id="Layer_1" xmlns="http://www.w3.org/2000/svg" xmlns:xlink="http://www.w3.org/1999/xlink" x="0px" y="0px"
	 viewBox="0 0 58 58" style="enable-background:new 0 0 58 58;" xml:space="preserve">
<style type="text/css">
	.st0{fill:#DD1100;}
	.st1{fill:none;}
	.st2{fill:#FFFFFF;}
</style>
<rect class="st0" width="58" height="58"/>
<rect x="9" y="6" class="st1" width="40" height="46"/>
<path class="st2" d="M36,17.2c-1.7-2.4-1.8-5.5-0.6-8.1L16.1,20.4c2.3,0.2,4.5,1.3,5.9,3.4c1.5,2.1,1.8,4.8,0.9,7.3
	c-0.1,0.2-0.2,0.5-0.3,0.7c9.9-5.8,9.3-5.4,19.2-11.3c-0.2,0-0.5,0-0.8-0.1C39.1,20.2,37.2,19,36,17.2L36,17.2L36,17.2z"/>
<path class="st2" d="M16.7,21.9c-3.6-0.6-6.9,1.8-7.6,5.4c-0.6,3.6,1.7,7,5.3,7.7c3.6,0.6,6.9-1.8,7.6-5.4
	C22.6,26,20.2,22.5,16.7,21.9z M14.7,33.2c-2.6-0.5-4.4-3-3.9-5.7c0.5-2.7,3-4.4,5.6-4c2.6,0.5,4.4,3,3.9,5.7
	C19.8,31.9,17.3,33.7,14.7,33.2z"/>
<path class="st2" d="M43.6,6.1c-3.6-0.6-6.9,1.8-7.6,5.4c-0.6,3.6,1.7,7,5.3,7.7c3.6,0.6,6.9-1.8,7.6-5.4
	C49.5,10.2,47.2,6.7,43.6,6.1z M41.6,17.4c-2.6-0.5-4.4-3-3.9-5.7c0.5-2.7,3-4.4,5.6-4c2.6,0.5,4.4,3,3.9,5.7
	C46.8,16.1,44.3,17.9,41.6,17.4z"/>
<path class="st2" d="M15,31.7c1.8,0.3,3.5-0.9,3.8-2.7c0.3-1.8-0.9-3.5-2.6-3.8c-1.8-0.3-3.5,0.9-3.8,2.7C12,29.6,13.2,31.4,15,31.7
	z"/>
<path class="st2" d="M41.9,15.9c1.8,0.3,3.5-0.9,3.8-2.7c0.3-1.8-0.9-3.5-2.6-3.8c-1.8-0.3-3.5,0.9-3.8,2.7
	C38.9,13.9,40.1,15.6,41.9,15.9z"/>
<path class="st2" d="M22,40.8c1.7,2.4,1.8,5.5,0.6,8.1l19.2-11.3c-2.3-0.2-4.5-1.3-5.9-3.4c-1.5-2.1-1.8-4.8-0.9-7.3
	c0.1-0.2,0.2-0.5,0.3-0.7C25.4,32,26,31.5,16.1,37.4c0.2,0,0.5,0,0.8,0.1C18.9,37.8,20.8,39,22,40.8L22,40.8z"/>
<path class="st2" d="M41.3,36.1c3.6,0.6,6.9-1.8,7.6-5.4c0.6-3.6-1.7-7-5.3-7.7c-3.6-0.6-6.9,1.8-7.6,5.4
	C35.4,32,37.8,35.5,41.3,36.1z M43.3,24.8c2.6,0.5,4.4,3,3.9,5.7c-0.5,2.7-3,4.4-5.6,4c-2.6-0.5-4.4-3-3.9-5.7
	C38.2,26.1,40.7,24.3,43.3,24.8z"/>
<path class="st2" d="M14.4,51.9c3.6,0.6,6.9-1.8,7.6-5.4c0.6-3.6-1.7-7-5.3-7.7c-3.6-0.6-6.9,1.8-7.6,5.4
	C8.5,47.8,10.8,51.3,14.4,51.9z M16.4,40.6c2.6,0.5,4.4,3,3.9,5.7c-0.5,2.7-3,4.4-5.6,4c-2.6-0.5-4.4-3-3.9-5.7
	C11.2,41.9,13.7,40.1,16.4,40.6z"/>
<path class="st2" d="M41.9,32.9c1.8,0.3,3.5-0.9,3.8-2.7c0.3-1.8-0.9-3.5-2.6-3.8c-1.8-0.3-3.5,0.9-3.8,2.7
	C38.9,30.8,40.1,32.5,41.9,32.9z"/>
<path class="st2" d="M15,48.6c1.8,0.3,3.5-0.9,3.8-2.7c0.3-1.8-0.9-3.5-2.6-3.8c-1.8-0.3-3.5,0.9-3.8,2.7C12,46.6,13.2,48.3,15,48.6
	z"/>
</svg>
