<svg width="214" height="59" viewBox="0 0 214 59" fill="none" xmlns="http://www.w3.org/2000/svg">
<g clip-path="url(#clip0_100_2716)">
<path d="M5 0.200012H53C55.7614 0.200012 58 2.43859 58 5.20001V53.2C58 55.9614 55.7614 58.2 53 58.2H5C2.23858 58.2 3.8147e-06 55.9614 3.8147e-06 53.2V5.20001C3.8147e-06 2.43859 2.23858 0.200012 5 0.200012Z" fill="#DD1100"/>
<g clip-path="url(#clip1_100_2716)">
<path d="M35.9654 17.4208C34.2794 14.9746 34.1319 11.8902 35.3226 9.36951L16.1445 20.6222C18.4206 20.7924 20.6229 21.9623 22.0455 24.0151C23.5207 26.1529 23.8895 28.8437 22.9938 31.3644C22.9095 31.609 22.8042 31.843 22.6988 32.077C32.6145 26.2379 31.9823 26.6421 41.9085 20.803C41.7294 20.803 41.4343 20.7605 41.0971 20.7073C39.095 20.3563 37.2404 19.2289 35.9865 17.4208H35.9759H35.9654Z" fill="white"/>
<path d="M16.6928 22.1006C13.1417 21.4731 9.74861 23.8768 9.11637 27.4717C8.48412 31.0666 10.8656 34.502 14.4167 35.1401C17.9678 35.7677 21.3608 33.364 21.9931 29.7691C22.6253 26.1741 20.2439 22.7388 16.6928 22.1006ZM14.7117 33.4278C12.0879 32.9598 10.3387 30.4391 10.8024 27.7695C11.266 25.1106 13.7634 23.3344 16.3977 23.8023C19.0321 24.2703 20.7707 26.791 20.3071 29.4606C19.8434 32.1196 17.3461 33.8958 14.7117 33.4278Z" fill="white"/>
<path d="M43.6049 6.29574C40.0538 5.66823 36.6607 8.07192 36.0285 11.6668C35.3962 15.2618 37.7777 18.6971 41.3288 19.3353C44.8799 19.9628 48.2729 17.5591 48.9052 13.9642C49.5374 10.3693 47.156 6.93389 43.6049 6.29574ZM41.6238 17.6229C39 17.1549 37.2508 14.6342 37.7145 11.9646C38.1781 9.30568 40.6755 7.5295 43.3098 7.99747C45.9442 8.46545 47.6828 10.9861 47.2192 13.6557C46.7556 16.3147 44.2582 18.0909 41.6238 17.6229Z" fill="white"/>
<path d="M14.9848 31.8749C16.7656 32.194 18.4622 30.9921 18.7783 29.184C19.0944 27.3866 17.9037 25.6636 16.1334 25.3551C14.3526 25.0361 12.656 26.2379 12.3399 28.046C12.0238 29.8435 13.2145 31.5665 14.9848 31.8749Z" fill="white"/>
<path d="M41.8872 16.0913C43.668 16.4104 45.3645 15.2086 45.6806 13.4005C45.9968 11.603 44.806 9.88002 43.0357 9.57158C41.2549 9.2525 39.5584 10.4544 39.2423 12.2624C38.9261 14.0599 40.1169 15.7829 41.8872 16.0913Z" fill="white"/>
<path d="M22.0244 40.9792C23.7103 43.4254 23.8579 46.5098 22.6671 49.0305L41.8452 37.7672C39.5691 37.597 37.3668 36.4271 35.9548 34.3743C34.4796 32.2365 34.1108 29.5457 35.0064 27.025C35.0907 26.791 35.1961 26.5464 35.3015 26.3124C25.3858 32.1515 26.018 31.7473 16.0918 37.5864C16.2709 37.5864 16.566 37.6289 16.9032 37.6821C18.9053 38.0331 20.7599 39.1605 22.0138 40.9686L22.0244 40.9792Z" fill="white"/>
<path d="M41.3073 36.3101C44.8584 36.9376 48.2515 34.5339 48.8837 30.939C49.5159 27.3441 47.1345 23.9087 43.5834 23.2705C40.0323 22.643 36.6392 25.0467 36.007 28.6416C35.3747 32.2365 37.7562 35.6719 41.3073 36.3101ZM43.2883 24.9829C45.9122 25.4509 47.6614 27.9716 47.1977 30.6412C46.7341 33.3001 44.2367 35.0763 41.6024 34.6083C38.968 34.1404 37.2293 31.6197 37.693 28.9501C38.1566 26.2911 40.654 24.5149 43.2883 24.9829Z" fill="white"/>
<path d="M14.3952 52.1043C17.9463 52.7318 21.3393 50.3281 21.9716 46.7332C22.6038 43.1383 20.2224 39.7029 16.6713 39.0648C13.1202 38.4373 9.72713 40.841 9.09488 44.4359C8.46264 48.0308 10.8441 51.4662 14.3952 52.1043ZM16.3762 40.7772C19 41.2451 20.7493 43.7658 20.2856 46.4354C19.822 49.0944 17.3246 50.8706 14.6902 50.4026C12.0559 49.9346 10.3172 47.4139 10.7809 44.7443C11.2445 42.0854 13.7419 40.3092 16.3762 40.7772Z" fill="white"/>
<path d="M41.8764 33.0555C43.6572 33.3746 45.3538 32.1727 45.6699 30.3646C45.986 28.5672 44.7953 26.8442 43.025 26.5357C41.2442 26.2167 39.5477 27.4185 39.2315 29.2266C38.9154 31.0241 40.1061 32.7471 41.8764 33.0555Z" fill="white"/>
<path d="M14.9643 48.8391C16.7451 49.1582 18.4417 47.9563 18.7578 46.1482C19.0739 44.3508 17.8832 42.6278 16.1129 42.3193C14.3321 42.0002 12.6355 43.2021 12.3194 45.0102C12.0033 46.8183 13.194 48.5306 14.9643 48.8391Z" fill="white"/>
</g>
</g>
<path d="M83.3657 39.9711L76.2275 49.9271H73.0078V33.9099H76.6934V43.8658L83.8316 33.9099H87.0512V49.9271H83.3657V39.9711Z" fill="#333"/>
<path d="M95.5872 50.2C92.9915 50.2 91.0697 49.2408 89.8051 47.3141L91.8101 44.8168C92.9749 46.1151 94.1812 46.76 95.4291 46.76C96.0697 46.76 96.6105 46.6195 97.0431 46.3383C97.4758 46.0572 97.6837 45.6355 97.6837 45.0649C97.6837 44.5605 97.4674 44.1636 97.0431 43.8741C96.6188 43.5847 95.9949 43.4359 95.1796 43.4359H93.707V40.0042H95.088C95.6704 40.0042 96.1446 39.8719 96.519 39.6156C96.8934 39.3592 97.0681 38.9954 97.0681 38.5406C97.0681 38.0527 96.91 37.6806 96.5939 37.4325C96.2777 37.1845 95.8451 37.0521 95.296 37.0521C94.1895 37.0521 93.2411 37.6062 92.4424 38.7225L90.3209 36.25C90.87 35.4562 91.6354 34.8195 92.6088 34.3399C93.5822 33.8603 94.6388 33.6205 95.7786 33.6205C97.2844 33.6205 98.4907 34.0174 99.3893 34.8195C100.296 35.6216 100.745 36.7214 100.745 38.1271C100.745 39.5329 100.071 40.6492 98.7154 41.534V41.6001C100.479 42.1459 101.361 43.4276 101.361 45.4205C101.361 46.8427 100.779 47.9921 99.6139 48.8769C98.4491 49.7452 97.1014 50.1834 95.5872 50.1834V50.2Z" fill="#333"/>
<path d="M113.108 49.9271H109.423V33.9099H113.108V40.889L118.383 33.9099H122.8L116.744 41.3024L123.283 49.9271H118.607L113.108 42.303V49.9271Z" fill="#333"/>
<path d="M135.721 39.9711L128.583 49.9271H125.363V33.9099H129.048V43.8658L136.187 33.9099H139.406V49.9271H135.721V39.9711Z" fill="#333"/>
<path d="M146.544 37.3415H141.711V33.9099H155.064V37.3415H150.23V49.9271H146.544V37.3415Z" fill="#333"/>
<path d="M157.751 49.9271H154.041L160.738 33.9099H164.032L170.73 49.9271H166.794L165.455 46.5616H159.074L157.743 49.9271H157.751ZM164.082 43.1299L162.285 38.5984L160.463 43.1299H164.082Z" fill="#333"/>
<path d="M183.475 49.9271H179.789V44.7755H178.159L175.097 49.9271H170.979L174.756 43.9734C173.1 42.9976 172.269 41.5423 172.269 39.599C172.269 37.937 172.834 36.556 173.974 35.4562C175.097 34.3564 176.836 33.8107 179.199 33.8107C179.307 33.8107 179.448 33.8107 179.64 33.819C179.831 33.8272 180.089 33.8355 180.438 33.8438C180.788 33.852 181.096 33.852 181.37 33.852C181.661 33.852 181.977 33.852 182.31 33.8603C182.651 33.8603 182.901 33.8768 183.084 33.8851C183.259 33.8851 183.392 33.8934 183.483 33.8934V49.9106L183.475 49.9271ZM177.859 41.3438H179.789V37.3416C179.532 37.2837 179.082 37.2506 178.458 37.2506C177.834 37.2506 177.269 37.4491 176.836 37.8377C176.395 38.2264 176.179 38.7308 176.179 39.3592C176.179 39.8967 176.328 40.335 176.636 40.674C176.944 41.0131 177.352 41.2446 177.859 41.3521V41.3438Z" fill="#333"/>
<path d="M76.6856 24.3195H73V8.30235H76.6856V15.2815L81.9602 8.30235H86.3779L80.3212 15.6949L86.8604 24.3195H82.1848L76.6856 16.6955V24.3195Z" fill="#333"/>
<path d="M86.9519 16.3069C86.9519 13.9419 87.7423 11.9739 89.323 10.4027C90.9204 8.81507 92.9836 8.02125 95.5128 8.02125C98.0419 8.02125 100.08 8.77372 101.661 10.287C103.275 11.8002 104.082 13.8013 104.082 16.3069C104.082 18.8124 103.267 20.6977 101.644 22.2606C100.03 23.8152 97.992 24.5925 95.5211 24.5925C93.0502 24.5925 90.962 23.84 89.348 22.3268C87.7506 20.8135 86.9519 18.8124 86.9519 16.3069ZM90.8621 16.3069C90.8621 17.663 91.3114 18.8207 92.2182 19.7633C93.1084 20.6977 94.2066 21.1608 95.5128 21.1608C96.9853 21.1608 98.1334 20.7143 98.9404 19.8129C99.7558 18.8868 100.163 17.7126 100.163 16.3151C100.163 14.9177 99.7142 13.7021 98.8323 12.8173C97.9255 11.916 96.819 11.4694 95.5128 11.4694C94.2066 11.4694 93.0502 11.916 92.1766 12.8173C91.3031 13.7186 90.8621 14.8846 90.8621 16.3151V16.3069Z" fill="#333"/>
<path d="M120.313 24.3195H116.628V17.8697H110.754V24.3195H107.069V8.30235H110.754V14.438H116.628V8.30235H120.313V24.3195Z" fill="#333"/>
<path d="M124.465 24.27V8.34372C126.262 8.25276 127.884 8.20315 129.348 8.20315C131.129 8.20315 132.477 8.55871 133.392 9.26985C134.307 9.98099 134.764 10.9485 134.764 12.1888C134.764 13.76 134.149 14.9507 132.926 15.7611V15.8107C133.616 16.067 134.174 16.5136 134.598 17.1337C135.022 17.7622 135.23 18.5395 135.23 19.4656C135.23 21.0698 134.665 22.2937 133.525 23.1536C132.402 23.9971 130.929 24.4105 129.107 24.4105C126.977 24.4105 125.43 24.3609 124.481 24.27H124.465ZM129.299 11.6348C129.024 11.6348 128.641 11.6679 128.15 11.7258V14.6282H129.373C130.505 14.6282 131.079 14.1073 131.079 13.0736C131.079 12.6271 130.913 12.2798 130.571 12.0235C130.23 11.7671 129.814 11.6348 129.307 11.6348H129.299ZM129.573 17.8366H128.142V20.8383C128.483 20.9293 128.891 20.9789 129.382 20.9789C130.813 20.9789 131.52 20.4166 131.52 19.2837C131.52 18.3245 130.871 17.8449 129.565 17.8449L129.573 17.8366Z" fill="#333"/>
<path d="M148.45 24.3195H138.666V8.30235H148.225V11.734H142.352V14.5455H147.535V17.9772H142.352V20.8796H148.45V24.3195Z" fill="#333"/>
<path d="M162.269 14.3636L155.131 24.3195H151.911V8.30235H155.597V18.2583L162.735 8.30235H165.955V24.3195H162.269V14.3636Z" fill="#333"/>
<path d="M179.881 24.3195H170.098V8.30235H179.649V11.734H173.775V14.5455H178.958V17.9772H173.775V20.8796H179.873V24.3113L179.881 24.3195Z" fill="#333"/>
<path d="M187.02 18.8702V24.3196H183.334V8.30236C184.041 8.30236 184.815 8.30236 185.655 8.27755C186.512 8.26101 187.386 8.25275 188.259 8.25275C190.531 8.25275 192.186 8.75716 193.234 9.76599C194.266 10.7417 194.774 12.0069 194.774 13.5615C194.774 15.1161 194.224 16.3316 193.143 17.3818C192.053 18.4154 190.614 18.9364 188.817 18.9364C188.018 18.9364 187.419 18.9116 187.02 18.8702ZM188.634 11.6844C188.634 11.6844 188.55 11.6844 188.426 11.6927C188.301 11.701 188.11 11.7092 187.852 11.7175C187.594 11.7258 187.311 11.7258 187.02 11.7258V15.389C187.66 15.4634 188.226 15.5047 188.7 15.5047C189.333 15.5047 189.848 15.3393 190.256 15.0086C190.664 14.6778 190.863 14.1899 190.863 13.5367C190.863 12.3046 190.123 11.6844 188.634 11.6844Z" fill="#333"/>
<path d="M197.769 8.30235H201.454V13.3134C201.903 13.2555 202.378 13.2224 202.885 13.2224C204.79 13.2224 206.246 13.6938 207.245 14.6447C208.251 15.5874 208.75 16.9187 208.75 18.6304C208.75 20.3421 208.168 21.7644 207.003 22.8146C205.822 23.8482 204.183 24.3692 202.095 24.3692C201.146 24.3692 200.331 24.3692 199.657 24.3444C199 24.3278 198.368 24.3195 197.769 24.3195V8.30235ZM202.561 16.6541C202.394 16.6541 202.02 16.6955 201.454 16.7699V20.8465C201.945 20.9044 202.303 20.9375 202.536 20.9375C204.066 20.9375 204.84 20.1933 204.84 18.7214C204.84 18.0516 204.641 17.5389 204.241 17.1916C203.842 16.8443 203.284 16.6624 202.561 16.6624V16.6541ZM214 24.3195H210.314V8.30235H214V24.3195Z" fill="#333"/>
<path fill-rule="evenodd" clip-rule="evenodd" d="M157.244 4.20001C157.244 5.2397 158.091 6.07708 159.133 6.07708C160.172 6.07708 161.021 5.23335 161.021 4.20001H163.101C163.101 6.37508 161.321 8.14435 159.133 8.14435C156.946 8.14435 155.164 6.38526 155.164 4.20001H157.244Z" fill="#333"/>
<defs>
<clipPath id="clip0_100_2716">
<rect width="58" height="58" fill="white" transform="translate(0 0.200012)"/>
</clipPath>
<clipPath id="clip1_100_2716">
<rect width="40" height="46" fill="white" transform="translate(9 6.20001)"/>
</clipPath>
</defs>
</svg>
