<svg xmlns="http://www.w3.org/2000/svg" xmlns:xlink="http://www.w3.org/1999/xlink" xml:space="preserve" id="uwu__SKELogoOnLight_svg__Layer_1" width="310" height="58" x="0" y="0" viewBox="0 0 310 58">
  <style>
    .uwu__SKELogoOnLight_svg__st3{fill:#fff}.uwu__SKELogoOnLight_svg__st4{fill:#333}
  </style>
  <defs>
    <path id="uwu__SKELogoOnLight_svg__SVGID_1_" d="M0 0h58v58H0z"/>
  </defs>
  <clipPath id="uwu__SKELogoOnLight_svg__SVGID_00000081631967739098456680000006201832457101279648_">
    <use xlink:href="#uwu__SKELogoOnLight_svg__SVGID_1_" overflow="visible"/>
  </clipPath>
  <g clip-path="url(#uwu__SKELogoOnLight_svg__SVGID_00000081631967739098456680000006201832457101279648_)">
    <path d="M5 0h48c2.8 0 5 2.2 5 5v48c0 2.8-2.2 5-5 5H5c-2.8 0-5-2.2-5-5V5c0-2.8 2.2-5 5-5" fill="#d10"/>
    <defs>
      <path id="uwu__SKELogoOnLight_svg__SVGID_00000174598082604552891010000008328533199834631102_" d="M9 6h40v46H9z"/>
    </defs>
    <clipPath id="uwu__SKELogoOnLight_svg__SVGID_00000133526528488436461180000011487590239880840607_">
      <use xlink:href="#uwu__SKELogoOnLight_svg__SVGID_00000174598082604552891010000008328533199834631102_" overflow="visible"/>
    </clipPath>
    <g clip-path="url(#uwu__SKELogoOnLight_svg__SVGID_00000133526528488436461180000011487590239880840607_)">
      <path d="M36 17.2c-1.7-2.4-1.8-5.5-.6-8.1L16.1 20.4c2.3.2 4.5 1.3 5.9 3.4 1.5 2.1 1.8 4.8.9 7.3-.1.2-.2.5-.3.7 9.9-5.8 9.3-5.4 19.2-11.3-.2 0-.5 0-.8-.1-1.9-.2-3.8-1.4-5-3.2" class="uwu__SKELogoOnLight_svg__st3"/>
      <path d="M16.7 21.9c-3.6-.6-6.9 1.8-7.6 5.4-.6 3.6 1.7 7 5.3 7.7 3.6.6 6.9-1.8 7.6-5.4.6-3.6-1.8-7.1-5.3-7.7m-2 11.3c-2.6-.5-4.4-3-3.9-5.7s3-4.4 5.6-4c2.6.5 4.4 3 3.9 5.7s-3 4.5-5.6 4M43.6 6.1c-3.6-.6-6.9 1.8-7.6 5.4-.6 3.6 1.7 7 5.3 7.7 3.6.6 6.9-1.8 7.6-5.4.6-3.6-1.7-7.1-5.3-7.7m-2 11.3c-2.6-.5-4.4-3-3.9-5.7s3-4.4 5.6-4c2.6.5 4.4 3 3.9 5.7-.4 2.7-2.9 4.5-5.6 4" class="uwu__SKELogoOnLight_svg__st3"/>
      <path d="M15 31.7c1.8.3 3.5-.9 3.8-2.7s-.9-3.5-2.6-3.8c-1.8-.3-3.5.9-3.8 2.7-.4 1.7.8 3.5 2.6 3.8M41.9 15.9c1.8.3 3.5-.9 3.8-2.7s-.9-3.5-2.6-3.8c-1.8-.3-3.5.9-3.8 2.7-.4 1.8.8 3.5 2.6 3.8M22 40.8c1.7 2.4 1.8 5.5.6 8.1l19.2-11.3c-2.3-.2-4.5-1.3-5.9-3.4-1.5-2.1-1.8-4.8-.9-7.3.1-.2.2-.5.3-.7-9.9 5.8-9.3 5.3-19.2 11.2.2 0 .5 0 .8.1 2 .3 3.9 1.5 5.1 3.3" class="uwu__SKELogoOnLight_svg__st3"/>
      <path d="M41.3 36.1c3.6.6 6.9-1.8 7.6-5.4.6-3.6-1.7-7-5.3-7.7-3.6-.6-6.9 1.8-7.6 5.4-.6 3.6 1.8 7.1 5.3 7.7m2-11.3c2.6.5 4.4 3 3.9 5.7s-3 4.4-5.6 4c-2.6-.5-4.4-3-3.9-5.7s3-4.5 5.6-4M14.4 51.9c3.6.6 6.9-1.8 7.6-5.4.6-3.6-1.7-7-5.3-7.7-3.6-.6-6.9 1.8-7.6 5.4-.6 3.6 1.7 7.1 5.3 7.7m2-11.3c2.6.5 4.4 3 3.9 5.7s-3 4.4-5.6 4c-2.6-.5-4.4-3-3.9-5.7.4-2.7 2.9-4.5 5.6-4" class="uwu__SKELogoOnLight_svg__st3"/>
      <path d="M41.9 32.9c1.8.3 3.5-.9 3.8-2.7s-.9-3.5-2.6-3.8c-1.8-.3-3.5.9-3.8 2.7-.4 1.7.8 3.4 2.6 3.8M15 48.6c1.8.3 3.5-.9 3.8-2.7s-.9-3.5-2.6-3.8c-1.8-.3-3.5.9-3.8 2.7-.4 1.8.8 3.5 2.6 3.8" class="uwu__SKELogoOnLight_svg__st3"/>
    </g>
  </g>
  <path d="M91.9 39.4q0-2.85-6.6-6c-1.3-.6-2.4-1.1-3.4-1.6s-2-1.2-3.2-2.1-2.1-1.8-2.9-2.7-1.4-2.1-1.9-3.5-.8-2.9-.7-4.6c0-3.6 1.3-6.7 4-9.2s6.2-3.8 10.6-3.8c5.8 0 10.2 1.7 13.3 5l-5.5 7.7q-1.8-1.8-3.3-2.4-1.35-.6-3.6-.6-2.1 0-3.3.9t-1.2 2.4c0 1.2.5 2.2 1.4 3.1s2.1 1.6 3.5 2.2 2.9 1.3 4.5 2.2q2.4 1.35 4.5 2.7c1.4 1 2.6 2.3 3.5 4.1.9 1.7 1.4 3.8 1.4 6.1 0 3.9-1.5 7-4.4 9.5s-6.6 3.7-11 3.7c-3.3 0-6.4-.7-9.3-2q-4.5-1.95-6-5.4l5.9-7c1.2 1.5 2.6 2.7 4.4 3.5s3.5 1.3 5.3 1.3c1.3 0 2.4-.3 3.1-.9.5-.6.9-1.5.9-2.6M121.5 51.8h-10.3V6.7h10.3v19.7l14.8-19.7h12.4l-17 20.8L150 51.8h-13.1l-15.4-21.5zM183.2 51.8h-27.4V6.7h26.7v9.7h-16.4v7.9h14.5V34h-14.5v8.2h17.1zM204.7 34.5v17.3h-5.5V6.7c1.8 0 3.7 0 5.7-.1 2 0 4-.1 6.1-.1 5.9 0 10.2 1.3 12.8 4 2.6 2.6 3.9 6 3.9 10 0 3.9-1.4 7.3-4.3 10.1-2.8 2.8-6.7 4.1-12 4.1-2.7 0-5-.1-6.7-.2m6.8-22.8c-.8 0-3.1 0-6.8.1v17.4q4.05.3 6.6.3 4.95 0 7.8-2.4c1.9-1.6 2.8-3.8 2.8-6.7 0-2.8-.9-5-2.6-6.5-1.8-1.4-4.3-2.2-7.8-2.2M265.3 6.7h5.5l-15.6 34.8c-1.6 3.6-3.3 6.2-5 7.9-1.7 1.6-3.8 2.4-6.2 2.4-2.3 0-4.1-.5-5.5-1.6l1.9-4.6c1.1.8 2.3 1.2 3.5 1.2 2.2 0 4-1.5 5.5-4.6l.8-1.7-20.4-33.8h6.2L252.9 35zM307.8 43.3l2.2 4.1c-1.5 1.5-3.5 2.8-6.1 3.7s-5.3 1.4-8.1 1.4c-6.7 0-12.3-2.1-16.6-6.3-4.2-4.3-6.3-9.9-6.3-16.9 0-6.7 2-12.2 6.1-16.6 4-4.4 9.5-6.6 16.4-6.6 5.7 0 10.3 1.5 13.7 4.4l-2.5 4.1c-3-2.2-6.7-3.4-11.2-3.4-4.9 0-8.9 1.7-12.1 5-3.1 3.3-4.7 7.6-4.7 13s1.6 9.7 4.8 13.1c3.3 3.3 7.6 5 12.8 5 4.5 0 8.3-1.3 11.6-4" class="uwu__SKELogoOnLight_svg__st4"/>
</svg>
