<svg width="32" height="32" viewBox="0 0 32 32" fill="none" xmlns="http://www.w3.org/2000/svg">
<g clip-path="url(#clip0_100_3205)">
<path d="M15.0365 27.9956C7.94189 17.7105 6.625 16.6549 6.625 12.875C6.625 7.69731 10.8223 3.5 16 3.5C21.1777 3.5 25.375 7.69731 25.375 12.875C25.375 16.6549 24.0581 17.7105 16.9635 27.9956C16.4979 28.6682 15.5021 28.6681 15.0365 27.9956ZM16 16.7812C18.1574 16.7812 19.9062 15.0324 19.9062 12.875C19.9062 10.7176 18.1574 8.96875 16 8.96875C13.8426 8.96875 12.0938 10.7176 12.0938 12.875C12.0938 15.0324 13.8426 16.7812 16 16.7812Z" fill="#DD3322"/>
</g>
<defs>
<clipPath id="clip0_100_3205">
<rect width="25" height="25" fill="white" transform="translate(3.5 3.5)"/>
</clipPath>
</defs>
</svg>
