<svg width="32" height="32" viewBox="0 0 32 32" fill="none" xmlns="http://www.w3.org/2000/svg">
<g clip-path="url(#clip0_100_3223)">
<path d="M28.0264 12.8164C28.2168 12.665 28.5 12.8066 28.5 13.0459V23.0312C28.5 24.3252 27.4502 25.375 26.1562 25.375H5.84375C4.5498 25.375 3.5 24.3252 3.5 23.0312V13.0508C3.5 12.8066 3.77832 12.6699 3.97363 12.8213C5.06738 13.6709 6.51758 14.75 11.498 18.3682C12.5283 19.1201 14.2666 20.7021 16 20.6924C17.7432 20.707 19.5156 19.0908 20.5068 18.3682C25.4873 14.75 26.9326 13.666 28.0264 12.8164ZM16 19.125C17.1328 19.1445 18.7637 17.6992 19.584 17.1035C26.0635 12.4014 26.5566 11.9912 28.0508 10.8193C28.334 10.5996 28.5 10.2578 28.5 9.89648V8.96875C28.5 7.6748 27.4502 6.625 26.1562 6.625H5.84375C4.5498 6.625 3.5 7.6748 3.5 8.96875V9.89648C3.5 10.2578 3.66602 10.5947 3.94922 10.8193C5.44336 11.9863 5.93652 12.4014 12.416 17.1035C13.2363 17.6992 14.8672 19.1445 16 19.125Z" fill="#DD3322"/>
</g>
<defs>
<clipPath id="clip0_100_3223">
<rect width="25" height="25" fill="white" transform="translate(3.5 3.5)"/>
</clipPath>
</defs>
</svg>
