<svg width="32" height="32" viewBox="0 0 32 32" fill="none" xmlns="http://www.w3.org/2000/svg">
<g clip-path="url(#clip0_100_3235)">
<path d="M27.7866 21.1656L22.3179 18.8218C22.0843 18.7223 21.8246 18.7013 21.578 18.762C21.3315 18.8228 21.1113 18.962 20.9507 19.1587L18.5288 22.1177C14.7279 20.3256 11.669 17.2668 9.87695 13.4659L12.8359 11.044C13.033 10.8837 13.1726 10.6635 13.2333 10.4168C13.2941 10.1701 13.2729 9.91035 13.1729 9.6768L10.8291 4.20805C10.7193 3.9563 10.5251 3.75075 10.28 3.62685C10.0348 3.50295 9.75416 3.46847 9.48633 3.52934L4.4082 4.70122C4.14998 4.76085 3.9196 4.90624 3.75466 5.11366C3.58971 5.32109 3.49994 5.57829 3.5 5.84331C3.5 18.3677 13.6514 28.4996 26.1562 28.4996C26.4213 28.4997 26.6787 28.41 26.8862 28.2451C27.0937 28.0801 27.2392 27.8497 27.2988 27.5914L28.4707 22.5132C28.5312 22.2441 28.496 21.9623 28.3711 21.7163C28.2463 21.4704 28.0396 21.2756 27.7866 21.1656Z" fill="#DD3322"/>
</g>
<defs>
<clipPath id="clip0_100_3235">
<rect width="25" height="25" fill="white" transform="translate(3.5 3.5)"/>
</clipPath>
</defs>
</svg>
