<svg width="32" height="32" viewBox="0 0 32 32" fill="none" xmlns="http://www.w3.org/2000/svg">
<path d="M16 32C24.8366 32 32 24.8366 32 16C32 7.16344 24.8366 0 16 0C7.16344 0 0 7.16344 0 16C0 24.8366 7.16344 32 16 32Z" fill="url(#paint0_linear_33_622)"/>
<path d="M10.8306 17.1697L12.7288 22.4238C12.7288 22.4238 12.9662 22.9154 13.2203 22.9154C13.4744 22.9154 17.2543 18.9832 17.2543 18.9832L21.4576 10.8645L10.8983 15.8134L10.8306 17.1697Z" fill="#C8DAEA"/>
<path d="M13.3475 18.5171L12.9831 22.3899C12.9831 22.3899 12.8305 23.5766 14.0169 22.3899C15.2033 21.2032 16.3389 20.2882 16.3389 20.2882" fill="#A9C6D8"/>
<path d="M10.8648 17.3571L6.95998 16.0849C6.95998 16.0849 6.49332 15.8955 6.64358 15.4662C6.67452 15.3777 6.73691 15.3023 6.92358 15.1729C7.78878 14.5698 22.9377 9.12487 22.9377 9.12487C22.9377 9.12487 23.3654 8.98074 23.6177 9.0766C23.6801 9.09592 23.7363 9.13147 23.7804 9.17961C23.8246 9.22776 23.8552 9.28676 23.869 9.3506C23.8963 9.46336 23.9077 9.57937 23.9029 9.69527C23.9017 9.79554 23.8896 9.88847 23.8804 10.0342C23.7881 11.5229 21.027 22.6333 21.027 22.6333C21.027 22.6333 20.8618 23.2834 20.27 23.3057C20.1245 23.3104 19.9796 23.2857 19.8439 23.2332C19.7082 23.1807 19.5844 23.1014 19.48 23.0001C18.3185 22.001 14.3041 19.3031 13.417 18.7098C13.397 18.6962 13.3802 18.6784 13.3676 18.6577C13.3551 18.637 13.3471 18.6138 13.3442 18.5898C13.3318 18.5273 13.3998 18.4498 13.3998 18.4498C13.3998 18.4498 20.39 12.2365 20.576 11.5842C20.5904 11.5337 20.536 11.5087 20.4629 11.5309C19.9986 11.7017 11.9504 16.7842 11.0621 17.3451C10.9982 17.3645 10.9306 17.3686 10.8648 17.3571Z" fill="white"/>
<defs>
<linearGradient id="paint0_linear_33_622" x1="16" y1="32" x2="16" y2="0" gradientUnits="userSpaceOnUse">
<stop stop-color="#1D93D2"/>
<stop offset="1" stop-color="#38B0E3"/>
</linearGradient>
</defs>
</svg>
