<svg width="32" height="32" viewBox="0 0 32 32" fill="none" xmlns="http://www.w3.org/2000/svg">
<path d="M16.0055 4.50813e-05C7.18042 4.50813e-05 0.00323352 7.17448 1.85513e-05 15.9931C-0.00457426 19.0042 0.843718 21.9551 2.44569 24.5045L2.82643 25.1099L1.20977 31.0116L7.26539 29.4239L7.85005 29.7702C10.3058 31.228 13.1217 31.9986 15.9931 32H15.9991C24.8173 32 31.9945 24.8246 31.9977 16.0055C32.011 11.7599 30.3254 7.6852 27.3162 4.69022C24.324 1.67872 20.2511 -0.0100591 16.0055 4.50813e-05Z" fill="url(#paint0_linear_33_621)"/>
<path d="M11.1886 7.94709C10.8281 7.1461 10.4487 7.13003 10.1065 7.11625L9.1843 7.10522C8.86372 7.10522 8.34244 7.22556 7.90199 7.70688C7.46154 8.18821 6.21826 9.35157 6.21826 11.7178C6.21826 14.084 7.94149 16.3708 8.18169 16.6923C8.42189 17.0133 11.5092 22.0241 16.3978 23.9521C20.461 25.5541 21.2873 25.2358 22.1696 25.1559C23.0518 25.0751 25.0153 23.9925 25.4153 22.8691C25.8162 21.7462 25.8162 20.784 25.6959 20.5824C25.5756 20.3807 25.2555 20.2618 24.7737 20.0211C24.2924 19.78 21.9284 18.6162 21.4875 18.4559C21.0466 18.2956 20.7265 18.2157 20.4055 18.697C20.0844 19.1783 19.164 20.2613 18.8834 20.5819C18.6028 20.9029 18.3222 20.9429 17.8408 20.7027C17.359 20.4625 15.8103 19.9545 13.9728 18.3158C12.543 17.0413 11.5781 15.4664 11.297 14.9856C11.0159 14.5047 11.2671 14.2438 11.5083 14.0041C11.7241 13.7887 11.9891 13.4424 12.2298 13.1618C12.4709 12.8811 12.5499 12.6804 12.7102 12.3599C12.8705 12.0393 12.7906 11.7577 12.6702 11.5175C12.5504 11.2769 11.6162 8.89872 11.1886 7.94709Z" fill="white"/>
<defs>
<linearGradient id="paint0_linear_33_621" x1="15.9181" y1="1.92459" x2="16.0803" y2="29.269" gradientUnits="userSpaceOnUse">
<stop stop-color="#57D163"/>
<stop offset="1" stop-color="#23B33A"/>
</linearGradient>
</defs>
</svg>
