<svg width="48" height="48" viewBox="0 0 48 48" fill="none" xmlns="http://www.w3.org/2000/svg">
<rect x="1" y="1" width="46" height="46" rx="23" stroke="white" stroke-width="2"/>
<path d="M10.1217 24.6349C12.4478 23.0974 15.0443 21.8142 17.4703 20.5244C21.644 18.4119 25.8343 16.336 30.0669 14.4033C30.8904 14.0741 32.3701 13.7521 32.5152 15.2165C32.4357 17.2894 32.1089 19.3502 31.8847 21.411C31.3158 25.9428 30.6581 30.4592 30.0168 34.9761C29.7959 36.4808 28.2252 37.2596 27.2202 36.2967C24.8049 34.3391 22.3711 32.4004 19.9867 30.3973C19.2056 29.4449 19.9299 28.0772 20.6275 27.3971C22.6168 25.0446 24.7264 23.0459 26.6117 20.5719C27.1203 19.0982 25.6177 20.3402 25.122 20.7207C22.3987 22.9727 19.742 25.3622 16.8707 27.3415C15.4041 28.3102 13.6947 27.4823 12.2288 26.9418C10.9144 26.2887 8.98825 25.6308 10.1216 24.635L10.1217 24.6349Z" fill="white"/>
</svg>
