<svg width="48" height="48" viewBox="0 0 48 48" fill="none" xmlns="http://www.w3.org/2000/svg">
<rect x="1" y="1" width="46" height="46" rx="23" stroke="white" stroke-width="2"/>
<path fill-rule="evenodd" clip-rule="evenodd" d="M30.3737 26.7063C30.0223 26.5312 28.2945 25.685 27.9723 25.5683C27.6502 25.4516 27.4159 25.3933 27.1816 25.7434C26.9473 26.0935 26.2738 26.8813 26.0688 27.1148C25.8638 27.3482 25.6589 27.3774 25.3074 27.2023C24.956 27.0273 23.8236 26.6579 22.4813 25.4663C21.4366 24.539 20.7312 23.3935 20.5262 23.0434C20.3212 22.6932 20.5044 22.504 20.6804 22.3296C20.8384 22.1729 21.0317 21.9211 21.2075 21.7169C21.3832 21.5126 21.4418 21.3667 21.5589 21.1334C21.6761 20.8999 21.6175 20.6956 21.5296 20.5206C21.4418 20.3455 20.7389 18.624 20.4461 17.9237C20.1608 17.2417 19.8711 17.334 19.6554 17.3233C19.4506 17.3132 19.2161 17.311 18.9818 17.311C18.7475 17.311 18.3668 17.3986 18.0446 17.7487C17.7225 18.0988 16.8147 18.945 16.8147 20.6665C16.8147 22.388 18.0739 24.0511 18.2497 24.2845C18.4254 24.518 20.7278 28.0507 24.2532 29.5657C25.0916 29.926 25.7463 30.1412 26.2566 30.3025C27.0985 30.5686 27.8647 30.5311 28.4702 30.441C29.1454 30.3406 30.5494 29.5949 30.8423 28.7779C31.1351 27.9609 31.1351 27.2607 31.0473 27.1148C30.9595 26.9689 30.7252 26.8813 30.3737 26.7063ZM23.9605 35.4196H23.9558C21.8581 35.4188 19.8006 34.858 18.0058 33.798L17.5789 33.5458L13.1544 34.7009L14.3354 30.4077L14.0574 29.9676C12.8872 28.1152 12.2691 25.9742 12.27 23.7759C12.2726 17.3612 17.5168 12.1424 23.9651 12.1424C27.0876 12.1437 30.0227 13.3554 32.2299 15.5545C34.437 17.7535 35.6519 20.6767 35.6507 23.7853C35.648 30.2005 30.4039 35.4196 23.9605 35.4196ZM33.9107 13.8834C31.2552 11.2376 27.7238 9.77977 23.9613 9.77829C16.2089 9.77829 9.89939 16.0572 9.89628 23.775C9.89526 26.242 10.5429 28.6502 11.7737 30.7729L9.77832 38.0264L17.2344 36.08C19.2887 37.1951 21.6017 37.7827 23.9557 37.7837H23.9614H23.9615C31.7131 37.7837 38.0232 31.504 38.0264 23.7861C38.0278 20.046 36.5662 16.5291 33.9107 13.8834Z" fill="white"/>
</svg>
